<svg width="278" height="25" viewBox="0 0 278 25" fill="none" xmlns="http://www.w3.org/2000/svg">
<path d="M278 9.91826C276.352 8.41499 273.763 7.63068 271.275 7.63068C268.081 7.63068 264.315 9.19931 264.315 13.0882C264.315 16.1601 266.87 17.3039 269.191 17.8268C271.511 18.3496 272.519 18.6764 272.519 19.6895C272.519 20.7026 271.443 21.0947 270.535 21.0947C269.759 21.0778 268.995 20.9067 268.29 20.592C267.584 20.2773 266.952 19.8256 266.433 19.2647L263.34 22.4346C265.088 24.0686 267.913 24.9509 270.636 24.9509C274.066 24.9509 277.798 23.513 277.798 19.3954C277.798 16.2255 275.007 14.9836 272.452 14.4281C270.3 13.9705 269.392 13.7091 269.392 12.7941C269.392 11.879 270.435 11.4869 271.477 11.4869C272.791 11.5322 274.04 12.0572 274.974 12.9575L278 9.91826ZM262.197 12.1732V8.13722H258.263V3.85617H252.849V8.13722H250.193V12.1568H252.883V19.0196C252.883 22.4836 254.362 24.8039 258.834 24.8039C259.919 24.803 260.997 24.6376 262.029 24.3137L261.961 20.3921C261.443 20.5689 260.897 20.6574 260.347 20.6536C258.767 20.6536 258.263 19.8692 258.263 18.366V12.1568L262.197 12.1732ZM248.441 24.4117V14.3464C248.441 11.0784 246.827 7.6797 242.322 7.6797C240.002 7.6797 238.085 8.95421 237.312 10.3921H237.244V8.13722H231.898V24.4117H237.446V15.5882C237.446 13.7255 238.455 12.0915 240.405 12.0915C242.355 12.0915 242.893 13.7255 242.893 15.5228V24.4117H248.441ZM229.141 16.4705C229.141 10.915 225.678 7.61434 220.735 7.61434C215.658 7.61434 211.69 11.013 211.69 16.3398C211.69 21.83 215.859 24.9346 220.903 24.9346C224.299 24.9346 226.922 23.6928 228.502 21.4705L224.669 19.1176C223.929 20.098 222.719 20.817 220.97 20.817C218.986 20.817 217.137 19.5424 216.969 17.7451H229.107C229.141 17.3529 229.141 16.8954 229.141 16.4705ZM216.969 14.4117C217.104 12.7451 218.65 11.3071 220.769 11.3071C222.954 11.3071 224.064 12.7124 224.064 14.4117H216.969ZM209.034 24.4117V14.3464C209.034 11.2745 207.487 7.6797 202.948 7.6797C200.46 7.6797 198.711 8.75813 197.602 10.4575C196.66 8.69277 194.979 7.6797 192.558 7.6797C191.549 7.65041 190.55 7.88708 189.668 8.36461C188.786 8.84214 188.054 9.54273 187.548 10.3921H187.481V8.13722H182.135V24.4117H187.683V15.5882C187.683 13.6274 188.691 12.0915 190.44 12.0915C192.087 12.0915 192.827 13.2679 192.827 15.1307V24.4117H198.341V15.6209C198.341 13.7908 199.249 12.0915 201.132 12.0915C203.082 12.0915 203.519 13.6601 203.519 15.5228V24.4117H209.034ZM173.998 16.2091C173.998 18.3006 172.619 20.4248 170.03 20.4248C167.441 20.4248 166.062 18.3006 166.062 16.2091C166.062 14.1176 167.407 12.0588 169.996 12.0588C172.585 12.0588 173.998 14.1176 173.998 16.2091ZM179.31 16.2091C179.31 10.8823 175.074 7.61434 169.996 7.61434C164.919 7.61434 160.716 10.8823 160.716 16.2091C160.716 21.5359 164.956 24.9509 170 24.9509C175.043 24.9509 179.314 21.5522 179.314 16.2255L179.31 16.2091ZM157.966 24.4281V1.27447H149.661L144.482 16.1274H144.348L138.934 1.29081H130.757V24.4281H136.171L136.036 8.05552H136.137L142.156 24.4281H146.191L152.377 8.05552H152.478L152.344 24.4281H157.966ZM118.626 16.4869C118.626 10.9313 115.162 7.63068 110.22 7.63068C105.142 7.63068 101.175 11.0294 101.175 16.3562C101.175 21.8464 105.344 24.9509 110.388 24.9509C113.784 24.9509 116.406 23.7091 117.987 21.4869L114.154 19.1339C113.414 20.1143 112.203 20.8333 110.455 20.8333C108.471 20.8333 106.622 19.5588 106.454 17.7614H118.592C118.626 17.3692 118.626 16.9117 118.626 16.4869ZM106.454 14.4281C106.588 12.7614 108.135 11.3235 110.253 11.3235C112.439 11.3235 113.548 12.7287 113.548 14.4281H106.454ZM99.0227 9.91826C97.3752 8.41499 94.7861 7.63068 92.2979 7.63068C89.1036 7.63068 85.3378 9.19931 85.3378 13.0882C85.3378 16.1601 87.8932 17.3039 90.2132 17.8268C92.5333 18.3496 93.542 18.6764 93.542 19.6895C93.542 20.7026 92.4661 21.0947 91.5582 21.0947C90.7822 21.0778 90.0179 20.9067 89.3124 20.592C88.6069 20.2773 87.9752 19.8256 87.4561 19.2647L84.3627 22.4346C86.1111 24.0686 88.9355 24.9509 91.6591 24.9509C95.0887 24.9509 98.821 23.513 98.821 19.3954C98.821 16.2255 96.0302 14.9836 93.4748 14.4281C91.3228 13.9705 90.415 13.7091 90.415 12.7941C90.415 11.879 91.4573 11.4869 92.4997 11.4869C93.8141 11.5322 95.0627 12.0572 95.9966 12.9575L99.0227 9.91826ZM81.7736 8.15355H76.2593V24.4281H81.7736V8.15355ZM82.1771 2.95748C82.1396 2.16727 81.7902 1.42151 81.2016 0.875196C80.6129 0.328884 79.8303 0.0240479 79.0164 0.0240479C78.2025 0.0240479 77.4199 0.328884 76.8313 0.875196C76.2427 1.42151 75.8933 2.16727 75.8558 2.95748C75.8933 3.74768 76.2427 4.49345 76.8313 5.03976C77.4199 5.58607 78.2025 5.89091 79.0164 5.89091C79.8303 5.89091 80.6129 5.58607 81.2016 5.03976C81.7902 4.49345 82.1396 3.74768 82.1771 2.95748ZM73.9728 7.82676C73.5897 7.72526 73.1928 7.68118 72.796 7.69604C71.8435 7.70013 70.9118 7.96625 70.1084 8.46362C69.3051 8.96099 68.6631 9.66927 68.2568 10.5065H68.1895V8.15355H62.8769V24.4281H68.3913V16.0457C68.389 15.549 68.4903 15.0571 68.689 14.5995C68.8876 14.1418 69.1795 13.7281 69.5471 13.383C69.9147 13.038 70.3503 12.7688 70.8278 12.5918C71.3052 12.4147 71.8146 12.3335 72.3253 12.3529C72.8014 12.3464 73.2762 12.4013 73.7375 12.5163L73.9728 7.82676ZM58.7075 24.4281V14.3464C58.7075 11.0784 57.0936 7.6797 52.588 7.6797C50.2679 7.6797 48.3513 8.95421 47.578 10.3921H47.5107V8.13722H42.1645V24.4117H47.7058V15.5882C47.7058 13.7255 48.7145 12.0915 50.6647 12.0915C52.6149 12.0915 53.1528 13.7255 53.1528 15.5228V24.4117L58.7075 24.4281ZM37.8606 24.4281V8.13722H32.3463V16.9281C32.3463 18.7908 31.304 20.4248 29.3874 20.4248C27.3699 20.4248 26.8992 18.7908 26.8992 16.9607V8.13722H21.3513V18.2026C21.3513 21.4705 22.9316 24.8692 27.4372 24.8692C29.7909 24.8692 31.7074 23.5947 32.4808 22.1568H32.548V24.4117L37.8606 24.4281ZM18.1906 3.54571C16.0992 1.66663 13.073 0.686236 10.3831 0.686236C5.94473 0.686236 1.17012 2.81042 1.17012 7.94114C1.17012 12.1241 4.2299 13.6274 7.25606 14.5751C10.3831 15.5555 12.1988 16.1111 12.1988 17.8758C12.1988 19.7385 10.6521 20.3921 8.90364 20.3921C7.91753 20.3557 6.95023 20.1187 6.06414 19.6965C5.17805 19.2744 4.39284 18.6764 3.75916 17.9411L0 21.683C2.08469 23.8071 5.51434 25.0163 8.91036 25.0163C13.6177 25.0163 18.0225 22.6307 18.0225 17.3039C18.0225 12.696 13.8531 11.3562 10.6252 10.3431C8.37238 9.65682 6.96017 9.16663 6.96017 7.63068C6.96017 5.80061 8.80949 5.31042 10.2889 5.31042C11.0997 5.33422 11.8961 5.52409 12.6262 5.86761C13.3563 6.21113 14.0035 6.70055 14.5256 7.30388L18.1906 3.54571Z" fill="#DA291C"/>
</svg>
