<?xml version="1.0" standalone="no"?>
<!DOCTYPE svg PUBLIC "-//W3C//DTD SVG 20010904//EN"
 "http://www.w3.org/TR/2001/REC-SVG-20010904/DTD/svg10.dtd">
<svg version="1.0" xmlns="http://www.w3.org/2000/svg"
 width="134.000000pt" height="110.000000pt" viewBox="0 0 134.000000 110.000000"
 preserveAspectRatio="xMidYMid meet">

<g transform="translate(0.000000,110.000000) scale(0.100000,-0.100000)"
fill="#ffffff" stroke="none">
<path d="M552 1003 c-100 -58 -111 -67 -95 -78 10 -6 62 -37 116 -68 l97 -56
98 56 c53 31 105 62 115 68 16 11 5 20 -97 79 -63 36 -117 66 -118 65 -2 0
-54 -30 -116 -66z"/>
<path d="M175 785 l-140 -81 0 -173 0 -173 110 -64 110 -64 3 167 2 168 30 17
c29 17 31 16 85 -15 30 -18 55 -35 55 -38 0 -3 -11 -11 -25 -17 l-25 -12 2
-172 3 -173 105 -62 c58 -34 108 -62 112 -62 4 -1 9 74 10 166 l3 167 55 32
55 32 3 -199 c1 -109 6 -199 10 -198 4 0 54 28 112 62 l105 62 3 138 3 137 30
16 c17 8 29 17 27 18 -4 4 -691 398 -698 401 -3 1 -68 -35 -145 -80z"/>
<path d="M922 810 c-54 -31 -107 -62 -117 -67 -14 -8 9 -25 129 -94 l146 -84
2 -168 3 -167 110 64 110 64 0 173 0 173 -142 82 -141 82 -100 -58z"/>
</g>
</svg>
