<?xml version="1.0" encoding="utf-8" standalone="yes"?> <svg width="1000" height="1000" viewBox="-1 -1 31 31" xmlns="http://www.w3.org/2000/svg" xmlns:xlink="http://www.w3.org/1999/xlink" shape-rendering="crispEdges" id="qr code"><rect id="qr background" fill-opacity="1" fill="rgb(255, 255, 255)" x="-1" y="-1" width="31" height="31"></rect><path fill-opacity="1" fill="rgb(0, 0, 0)" id="qr dark pixels" fill-rule="evenodd" d="M 8 0 L 11 0 L 11 2 L 12 2 L 12 4 L 11 4 L 11 3 L 10 3 L 10 2 L 9 2 L 9 3 L 10 3 L 10 4 L 8 4 z M 12 0 L 19 0 L 19 1 L 18 1 L 18 2 L 19 2 L 19 3 L 20 3 L 20 4 L 19 4 L 19 5 L 18 5 L 18 6 L 17 6 L 17 7 L 16 7 L 16 5 L 14 5 L 14 6 L 13 6 L 13 8 L 12 8 L 12 6 L 11 6 L 11 5 L 13 5 L 13 3 L 14 3 L 14 1 L 12 1 zM 15 1 L 17 1 L 17 2 L 16 2 L 16 3 L 15 3 z M 16 3 L 18 3 L 18 4 L 16 4 z M 19 1 L 20 1 L 20 2 L 19 2 z M 20 2 L 21 2 L 21 3 L 20 3 z M 8 5 L 9 5 L 9 7 L 8 7 z M 19 5 L 21 5 L 21 7 L 20 7 L 20 6 L 19 6 z M 10 6 L 11 6 L 11 7 L 10 7 z M 14 6 L 15 6 L 15 7 L 16 7 L 16 8 L 14 8 z M 18 6 L 19 6 L 19 8 L 18 8 L 18 9 L 17 9 L 17 7 L 18 7 z M 9 7 L 10 7 L 10 8 L 9 8 z M 0 8 L 2 8 L 2 9 L 3 9 L 3 10 L 0 10 z M 4 8 L 7 8 L 7 9 L 4 9 z M 11 8 L 12 8 L 12 9 L 11 9 z M 20 8 L 21 8 L 21 9 L 20 9 z M 23 8 L 24 8 L 24 9 L 25 9 L 25 8 L 29 8 L 29 12 L 28 12 L 28 13 L 29 13 L 29 16 L 28 16 L 28 17 L 29 17 L 29 28 L 28 28 L 28 29 L 27 29 L 27 27 L 26 27 L 26 28 L 25 28 L 25 26 L 28 26 L 28 25 L 27 25 L 27 23 L 28 23 L 28 20 L 27 20 L 27 19 L 28 19 L 28 18 L 27 18 L 27 15 L 28 15 L 28 14 L 27 14 L 27 15 L 24 15 L 24 17 L 26 17 L 26 18 L 25 18 L 25 20 L 24 20 L 24 18 L 22 18 L 22 17 L 23 17 L 23 14 L 22 14 L 22 13 L 23 13 L 23 12 L 24 12 L 24 13 L 27 13 L 27 11 L 28 11 L 28 10 L 24 10 L 24 11 L 22 11 L 22 9 L 23 9 z M 9 9 L 11 9 L 11 10 L 9 10 z M 12 9 L 13 9 L 13 11 L 12 11 L 12 12 L 11 12 L 11 13 L 10 13 L 10 11 L 11 11 L 11 10 L 12 10 z M 14 9 L 17 9 L 17 10 L 18 10 L 18 9 L 19 9 L 19 11 L 18 11 L 18 13 L 17 13 L 17 14 L 19 14 L 19 16 L 18 16 L 18 17 L 19 17 L 19 19 L 18 19 L 18 21 L 20 21 L 20 23 L 19 23 L 19 22 L 18 22 L 18 23 L 19 23 L 19 24 L 18 24 L 18 25 L 17 25 L 17 24 L 15 24 L 15 20 L 14 20 L 14 19 L 15 19 L 15 18 L 13 18 L 13 19 L 12 19 L 12 20 L 11 20 L 11 19 L 10 19 L 10 14 L 11 14 L 11 16 L 12 16 L 12 17 L 11 17 L 11 18 L 12 18 L 12 17 L 15 17 L 15 16 L 16 16 L 16 21 L 17 21 L 17 15 L 13 15 L 13 14 L 14 14 L 14 12 L 15 12 L 15 13 L 16 13 L 16 12 L 17 12 L 17 11 L 14 11 zM 16 22 L 17 22 L 17 23 L 16 23 z M 3 10 L 4 10 L 4 11 L 5 11 L 5 12 L 4 12 L 4 13 L 3 13 z M 5 10 L 7 10 L 7 11 L 5 11 z M 8 10 L 9 10 L 9 12 L 7 12 L 7 11 L 8 11 z M 20 10 L 21 10 L 21 11 L 20 11 z M 1 11 L 2 11 L 2 13 L 1 13 z M 21 11 L 22 11 L 22 13 L 19 13 L 19 12 L 21 12 z M 25 11 L 26 11 L 26 12 L 25 12 z M 6 12 L 7 12 L 7 13 L 6 13 z M 12 12 L 13 12 L 13 13 L 12 13 z M 2 13 L 3 13 L 3 14 L 2 14 z M 5 13 L 6 13 L 6 14 L 8 14 L 8 15 L 9 15 L 9 16 L 8 16 L 8 17 L 6 17 L 6 16 L 7 16 L 7 15 L 5 15 z M 8 13 L 9 13 L 9 14 L 8 14 z M 3 14 L 4 14 L 4 15 L 5 15 L 5 16 L 4 16 L 4 17 L 3 17 z M 20 14 L 21 14 L 21 16 L 22 16 L 22 17 L 20 17 z M 1 15 L 2 15 L 2 16 L 1 16 z M 12 15 L 13 15 L 13 16 L 12 16 z M 0 16 L 1 16 L 1 18 L 0 18 z M 2 17 L 3 17 L 3 18 L 2 18 z M 5 17 L 6 17 L 6 18 L 5 18 z M 8 17 L 9 17 L 9 18 L 8 18 z M 6 18 L 7 18 L 7 19 L 6 19 z M 20 18 L 21 18 L 21 19 L 23 19 L 23 20 L 20 20 z M 26 18 L 27 18 L 27 19 L 26 19 z M 2 19 L 3 19 L 3 20 L 2 20 z M 4 19 L 5 19 L 5 20 L 4 20 z M 7 19 L 9 19 L 9 20 L 7 20 z M 0 20 L 2 20 L 2 21 L 0 21 z M 3 20 L 4 20 L 4 21 L 3 21 z M 5 20 L 7 20 L 7 21 L 5 21 z M 9 20 L 10 20 L 10 22 L 11 22 L 11 24 L 12 24 L 12 23 L 13 23 L 13 25 L 14 25 L 14 26 L 13 26 L 13 29 L 8 29 L 8 27 L 9 27 L 9 26 L 10 26 L 10 28 L 12 28 L 12 27 L 11 27 L 11 26 L 12 26 L 12 25 L 11 25 L 11 26 L 10 26 L 10 25 L 8 25 L 8 23 L 9 23 L 9 22 L 8 22 L 8 21 L 9 21 z M 12 20 L 13 20 L 13 21 L 12 21 z M 25 20 L 26 20 L 26 21 L 25 21 z M 13 21 L 14 21 L 14 22 L 13 22 z M 25 22 L 27 22 L 27 23 L 25 23 z M 19 24 L 20 24 L 20 25 L 19 25 z M 25 24 L 26 24 L 26 25 L 25 25 z M 15 25 L 17 25 L 17 27 L 16 27 L 16 29 L 14 29 L 14 28 L 15 28 z M 21 25 L 22 25 L 22 29 L 20 29 L 20 27 L 19 27 L 19 26 L 21 26 z M 17 27 L 19 27 L 19 28 L 18 28 L 18 29 L 17 29 z M 23 27 L 24 27 L 24 28 L 23 28 z M 24 28 L 25 28 L 25 29 L 24 29 z"></path><path id="qr squares" d="M0,0h7h0v0v7v0h0h-7h0v0v-7v0h0zM1,1h5h0v0v5v0h0h-5h0v0v-5v0h0zM2,2h3h0v0v3v0h0h-3h0v0v-3v0h0z M22,0h7h0v0v7v0h0h-7h0v0v-7v0h0zM23,1h5h0v0v5v0h0h-5h0v0v-5v0h0zM24,2h3h0v0v3v0h0h-3h0v0v-3v0h0z M0,22h7h0v0v7v0h0h-7h0v0v-7v0h0zM1,23h5h0v0v5v0h0h-5h0v0v-5v0h0zM2,24h3h0v0v3v0h0h-3h0v0v-3v0h0zM20,20h5h0v0v5v0h0h-5h0v0v-5v0h0zM21,21h3h0v0v3v0h0h-3h0v0v-3v0h0zM22,22h1h0v0v1v0h0h-1h0v0v-1v0h0z" fill-rule="evenodd" fill-opacity="1" fill="rgb(0, 0, 0)"></path></svg>